<svg width="103" height="194" viewBox="0 0 103 194" fill="none" xmlns="http://www.w3.org/2000/svg">
<g clip-path="url(#clip0_2_15)">
<path opacity="0.6" d="M21.3372 5.88718L-26.0715 53.213C-33.9089 61.0367 -33.9089 73.7215 -26.0715 81.5452L21.3372 128.871C29.1746 136.695 41.8816 136.695 49.7191 128.871L97.1278 81.5452C104.965 73.7215 104.965 61.0367 97.1278 53.213L49.7191 5.88718C41.8816 -1.93656 29.1746 -1.93656 21.3372 5.88718Z" fill="#6CEEC7"/>
<g opacity="0.9">
<path opacity="0.8" d="M9.66403 150.385C8.4989 150.386 7.34515 150.156 6.26924 149.71C5.19332 149.264 4.2165 148.609 3.395 147.784L-14.3944 129.864C-15.228 129.049 -15.8884 128.075 -16.3361 127C-16.7837 125.924 -17.0095 124.77 -16.9997 123.605C-16.9794 121.285 -16.0433 119.065 -14.3944 117.429L3.55784 99.5079C5.24664 97.8982 7.49183 97 9.82684 97C12.1618 97 14.4071 97.8982 16.0959 99.5079L33.8853 117.429C34.7124 118.248 35.3688 119.223 35.8168 120.297C36.2647 121.371 36.4953 122.523 36.4953 123.687C36.4953 124.85 36.2647 126.002 35.8168 127.076C35.3688 128.15 34.7124 129.125 33.8853 129.945L15.933 147.866C14.2605 149.502 12.0056 150.408 9.66403 150.385ZM9.66403 99.3453C8.82962 99.3372 8.00228 99.4987 7.23243 99.8201C6.46259 100.141 5.76634 100.616 5.18613 101.215L-12.8068 119.135C-13.9803 120.328 -14.6377 121.934 -14.6377 123.605C-14.6377 125.277 -13.9803 126.883 -12.8068 128.076L5.18613 145.874C6.39105 147.027 7.99532 147.67 9.66403 147.67C11.3327 147.67 12.937 147.027 14.1419 145.874L32.0941 127.954C32.6849 127.368 33.1538 126.672 33.4737 125.905C33.7937 125.137 33.9585 124.315 33.9585 123.484C33.9585 122.653 33.7937 121.83 33.4737 121.063C33.1538 120.295 32.6849 119.599 32.0941 119.014L14.1012 101.174C13.5195 100.591 12.8279 100.13 12.0662 99.8158C11.3045 99.5019 10.488 99.342 9.66403 99.3453V99.3453Z" fill="#6CEEC7"/>
</g>
</g>
<defs>
<clipPath id="clip0_2_15">
<rect width="138" height="194" fill="white" transform="translate(-35)"/>
</clipPath>
</defs>
</svg>
