<svg width="186" height="104" viewBox="0 0 186 104" fill="none" xmlns="http://www.w3.org/2000/svg">
<g clip-path="url(#clip0_2_8)">
<path opacity="0.6" d="M73.4475 -73.9108L8.10708 -8.57036C-2.69667 2.23339 -2.69667 19.7497 8.10708 30.5535L73.4475 95.8939C84.2513 106.698 101.768 106.698 112.571 95.8939L177.912 30.5535C188.716 19.7497 188.715 2.23337 177.912 -8.57037L112.571 -73.9108C101.768 -84.7146 84.2513 -84.7146 73.4475 -73.9108Z" fill="#6CEEC7"/>
<g opacity="0.8">
<path opacity="0.8" d="M39.8682 91.9257C38.7059 91.9311 37.5542 91.7053 36.48 91.2615C35.4059 90.8176 34.4307 90.1645 33.6113 89.3402L14.5563 70.2852C13.7339 69.4639 13.0814 68.4886 12.6363 67.415C12.1911 66.3414 11.962 65.1905 11.962 64.0283C11.962 62.8661 12.1911 61.7152 12.6363 60.6416C13.0814 59.568 13.7339 58.5927 14.5563 57.7714L33.6113 38.7164C34.4325 37.894 35.4079 37.2415 36.4815 36.7964C37.5551 36.3512 38.7059 36.1221 39.8682 36.1221C41.0304 36.1221 42.1813 36.3512 43.2549 36.7964C44.3285 37.2415 45.3038 37.894 46.1251 38.7164L65.1801 57.7714C66.0025 58.5927 66.6549 59.568 67.1001 60.6416C67.5452 61.7152 67.7744 62.8661 67.7744 64.0283C67.7744 65.1905 67.5452 66.3414 67.1001 67.415C66.6549 68.4886 66.0025 69.4639 65.1801 70.2852L46.1251 89.3402C45.3057 90.1645 44.3305 90.8176 43.2563 91.2615C42.1822 91.7053 41.0304 91.9311 39.8682 91.9257V91.9257ZM39.8682 37.6305C38.9088 37.6236 37.9576 37.8075 37.0699 38.1714C36.1822 38.5354 35.3756 39.0722 34.6972 39.7506L15.6422 58.8056C14.2717 60.1776 13.502 62.0374 13.502 63.9766C13.502 65.9158 14.2717 67.7756 15.6422 69.1476L34.6972 88.2026C36.0691 89.5731 37.929 90.3428 39.8682 90.3428C41.8073 90.3428 43.6672 89.5731 45.0391 88.2026L64.0942 69.1476C65.4646 67.7756 66.2344 65.9158 66.2344 63.9766C66.2344 62.0374 65.4646 60.1776 64.0942 58.8056L45.0391 39.7506C44.3565 39.0815 43.5481 38.5542 42.6605 38.1992C41.773 37.8442 40.824 37.6685 39.8682 37.6822V37.6305Z" fill="#6CEEC7"/>
</g>
</g>
<defs>
<clipPath id="clip0_2_8">
<rect width="186" height="186" fill="white" transform="translate(0 -82)"/>
</clipPath>
</defs>
</svg>
