<svg width="54" height="99" viewBox="0 0 54 99" fill="none" xmlns="http://www.w3.org/2000/svg">
<g clip-path="url(#clip0_2_36)">
<path d="M7.88005 32.6971L20.7432 45.6327C22.8671 47.7686 26.3105 47.7686 28.4344 45.6327L41.2976 32.6971C43.4214 30.5612 43.4214 27.0984 41.2976 24.9626L28.4344 12.0269C26.3105 9.89105 22.8671 9.89106 20.7432 12.0269L7.88005 24.9626C5.75619 27.0984 5.75619 30.5612 7.88005 32.6971Z" fill="#6CEEC7"/>
<path opacity="0.4" d="M3.40263 68.0318L30.7947 95.5783C35.3264 100.135 42.6736 100.135 47.2053 95.5783L74.5974 68.0318C79.129 63.4746 79.129 56.086 74.5974 51.5288L47.2053 23.9823C42.6736 19.4251 35.3264 19.4251 30.7947 23.9823L3.40263 51.5288C-1.12902 56.086 -1.12902 63.4746 3.40263 68.0318Z" fill="#6CEEC7"/>
</g>
<defs>
<clipPath id="clip0_2_36">
<rect width="99" height="78" fill="white" transform="translate(0 99) rotate(-90)"/>
</clipPath>
</defs>
</svg>
